<svg width="100" height="100" viewBox="0 0 100 100" fill="none" xmlns="http://www.w3.org/2000/svg">
<rect y="2" width="100" height="88" rx="6" fill="white"/>
<mask id="mask0_3_44" style="mask-type:alpha" maskUnits="userSpaceOnUse" x="0" y="2" width="100" height="88">
<rect y="2" width="100" height="88" rx="5" fill="white"/>
</mask>
<g mask="url(#mask0_3_44)">
<g filter="url(#filter0_f_3_44)">
<rect x="104" y="77" width="67" height="108" rx="5" transform="rotate(90 104 77)" fill="url(#paint0_linear_3_44)"/>
</g>
</g>
<path d="M10.1602 57V50.3447H19.1792C20.6785 50.3447 21.8337 50.0387 22.6445 49.4268C23.4707 48.7995 23.8838 47.9045 23.8838 46.7417V46.6958C23.8838 45.9461 23.6925 45.3035 23.3101 44.7681C22.9429 44.2326 22.3921 43.8271 21.6577 43.5518C20.9386 43.2764 20.0436 43.1387 18.9727 43.1387H10.1602V37.2866H18.5137C19.9671 37.2866 21.0687 36.9806 21.8184 36.3687C22.568 35.7414 22.9429 34.8923 22.9429 33.8213V33.7754C22.9429 32.7809 22.5833 31.993 21.8643 31.4116C21.1452 30.8302 20.166 30.5396 18.9268 30.5396H10.1602V23.8843H21.5659C23.8455 23.8843 25.7886 24.2209 27.395 24.894C29.0168 25.5519 30.256 26.5081 31.1128 27.7627C31.9696 29.002 32.3979 30.4937 32.3979 32.2378V32.2837C32.3979 33.5688 32.0996 34.724 31.5029 35.749C30.9062 36.7741 30.0877 37.6156 29.0474 38.2734C28.0223 38.916 26.8672 39.3215 25.582 39.4897V39.6733C27.0661 39.7039 28.4277 40.0635 29.667 40.752C30.9215 41.4404 31.9237 42.366 32.6733 43.5288C33.423 44.6763 33.7979 45.9691 33.7979 47.4072V47.4531C33.7979 49.3656 33.3159 51.0409 32.3521 52.479C31.3882 53.9019 30.0342 55.0111 28.29 55.8066C26.5459 56.6022 24.4881 57 22.1167 57H10.1602ZM5.29492 57V23.8843H15.0254V57H5.29492ZM37.0107 57V23.8843H60.373V31.5952H46.7412V36.8735H59.5239V44.0337H46.7412V49.2891H60.373V57H37.0107ZM64.917 57V23.8843H79.0767C82.4272 23.8843 85.2882 24.5039 87.6597 25.7432C90.0464 26.9824 91.867 28.8107 93.1216 31.228C94.3914 33.6453 95.0264 36.6211 95.0264 40.1553V40.2012C95.0264 43.7354 94.3914 46.757 93.1216 49.2661C91.867 51.7752 90.0464 53.6953 87.6597 55.0264C85.2882 56.3421 82.4272 57 79.0767 57H64.917ZM74.6475 49.2661H77.6997C79.3215 49.2661 80.6831 48.9372 81.7847 48.2793C82.8862 47.6061 83.7124 46.604 84.2632 45.2729C84.8293 43.9266 85.1123 42.236 85.1123 40.2012V40.1553C85.1123 38.304 84.814 36.7435 84.2173 35.4736C83.6359 34.2038 82.7868 33.2476 81.6699 32.605C80.5684 31.9471 79.245 31.6182 77.6997 31.6182H74.6475V49.2661Z" fill="black"/>
<defs>
<filter id="filter0_f_3_44" x="-29" y="52" width="158" height="117" filterUnits="userSpaceOnUse" color-interpolation-filters="sRGB">
<feFlood flood-opacity="0" result="BackgroundImageFix"/>
<feBlend mode="normal" in="SourceGraphic" in2="BackgroundImageFix" result="shape"/>
<feGaussianBlur stdDeviation="12.5" result="effect1_foregroundBlur_3_44"/>
</filter>
<linearGradient id="paint0_linear_3_44" x1="137.465" y1="77" x2="138.205" y2="184.995" gradientUnits="userSpaceOnUse">
<stop offset="0.1" stop-color="#0AEFFF"/>
<stop offset="0.3" stop-color="#0F83FF"/>
<stop offset="0.5" stop-color="#B056E7"/>
<stop offset="0.7" stop-color="#D878A7"/>
<stop offset="0.9" stop-color="#EB8886"/>
</linearGradient>
</defs>
</svg>
